<svg width="19" height="18" viewBox="0 0 19 18" fill="none" xmlns="http://www.w3.org/2000/svg">
<path d="M4.25098 17.9795H0.417969V6.02637H4.25098V17.9795ZM10.959 6.02637V6.77148C11.5585 6.57572 12.2039 6.46875 12.876 6.46875C16.0516 6.46875 18.626 8.84724 18.626 11.7812V17.9795H14.793V11.7812C14.793 10.8032 13.9345 10.0107 12.876 10.0107C11.8174 10.0107 10.959 10.8032 10.959 11.7812V17.9795H7.12598V6.02637H10.959ZM2.33398 0.270508C3.39253 0.270508 4.25098 1.06399 4.25098 2.04199C4.25079 3.01985 3.39241 3.8125 2.33398 3.8125C1.27571 3.81234 0.418159 3.01975 0.417969 2.04199C0.417969 1.06409 1.27559 0.27067 2.33398 0.270508Z" fill="#60511A"/>
</svg>
