<svg width="18" height="15" viewBox="0 0 18 15" fill="none" xmlns="http://www.w3.org/2000/svg">
<path d="M12.1499 0.625C10.1337 0.625 8.49923 2.21066 8.49923 4.16667C8.49923 4.46224 8.53656 4.74935 8.60687 5.02382C6.66824 5.02382 3.74823 4.66169 1.30956 2.40434C0.985274 2.10417 0.387303 2.30486 0.409797 2.72846C0.771208 9.53465 3.92612 11.52 5.55082 11.6435C4.50168 12.6009 2.97769 13.3565 1.44416 13.6957C1.03943 13.7852 0.939448 14.1946 1.33521 14.3135C2.43252 14.6432 4.00317 14.7702 4.8486 14.7917C10.8294 14.7917 15.6905 10.1407 15.7987 4.36349C16.5839 3.8917 17.0869 2.86732 17.3695 2.14164C17.4383 1.9649 17.1248 1.75898 16.9371 1.83117C16.3505 2.05679 15.6058 2.11027 14.9715 1.91931C14.302 1.12904 13.2866 0.625 12.1499 0.625Z" fill="#60511A"/>
</svg>
