<svg width="20" height="18" viewBox="0 0 20 18" fill="none" xmlns="http://www.w3.org/2000/svg">
<path d="M10 0.270508C15.2927 0.270508 19.583 4.23498 19.583 9.125C19.583 14.015 15.2927 17.9795 10 17.9795C8.53623 17.9795 7.14911 17.6759 5.9082 17.1338L1.79492 17.7666C1.11834 17.8708 0.538907 17.2797 0.657227 16.6055L1.31348 12.8691C0.738247 11.7319 0.416992 10.4632 0.416992 9.125C0.416992 4.23499 4.70728 0.27052 10 0.270508ZM6.9541 5.58301C6.51952 5.58301 6.16713 5.93557 6.16699 6.37012C6.16699 9.84744 8.98557 12.667 12.4629 12.667H12.9814C13.4519 12.667 13.833 12.2849 13.833 11.8145V11.5068C13.833 11.0214 13.5305 10.5872 13.0752 10.4189L12.543 10.2227C12.0613 10.0446 11.5217 10.2476 11.2773 10.6992C11.2541 10.6948 10.2037 10.4931 9.36133 9.71484C8.50956 8.92782 8.2959 7.94434 8.2959 7.94434C8.76966 7.72548 8.98273 7.16836 8.77539 6.68945L8.63184 6.3584C8.42823 5.88812 7.96461 5.58303 7.45215 5.58301H6.9541Z" fill="#60511A"/>
</svg>
