<svg width="24" height="24" viewBox="0 0 24 24" fill="none" xmlns="http://www.w3.org/2000/svg">
<path d="M12 13C15.3137 13 18 14.3431 18 16C18 17.6569 15.3137 19 12 19C8.68629 19 6 17.6569 6 16C6 14.3431 8.68629 13 12 13ZM6.38184 13.0195C5.21104 13.8133 4.50005 14.8567 4.5 16C4.5 16.6482 4.72846 17.2645 5.13965 17.8213C3.29951 17.4523 2 16.552 2 15.5C2.00011 14.224 3.91224 13.1718 6.38184 13.0195ZM17.6182 13.0195C20.0878 13.1718 21.9999 14.224 22 15.5C22 16.552 20.7005 17.4523 18.8604 17.8213C19.2715 17.2645 19.5 16.6482 19.5 16C19.5 14.8566 18.789 13.8133 17.6182 13.0195ZM7 7C7.20601 7 7.40479 7.03102 7.5918 7.08887C7.53133 7.38303 7.5 7.68794 7.5 8C7.5 8.94022 7.78815 9.81324 8.28125 10.5352C7.93419 10.8251 7.48763 11 7 11C5.89543 11 5 10.1046 5 9C5 7.89543 5.89543 7 7 7ZM12 5C13.6569 5 15 6.34315 15 8C15 9.65685 13.6569 11 12 11C10.3431 11 9 9.65685 9 8C9 6.34315 10.3431 5 12 5ZM17 7C18.1046 7.00002 19 7.89544 19 9C19 10.1046 18.1046 11 17 11C16.5124 11 16.0658 10.8251 15.7188 10.5352C16.2118 9.81324 16.5 8.94022 16.5 8C16.5 7.68794 16.4687 7.38303 16.4082 7.08887C16.5952 7.03103 16.794 7 17 7Z" fill="#E4A785"/>
</svg>
