<svg width="24" height="24" viewBox="0 0 24 24" fill="none" xmlns="http://www.w3.org/2000/svg">
<path d="M18 18C19.6569 18 21 18.8954 21 20C21 21.1046 19.6569 22 18 22C16.3431 22 15 21.1046 15 20C15 18.8954 16.3431 18 18 18ZM3 11.25C3.41421 11.25 3.75 11.5858 3.75 12C3.75 16.5563 7.44365 20.25 12 20.25C12.4142 20.25 12.75 20.5858 12.75 21C12.75 21.4142 12.4142 21.75 12 21.75C6.61522 21.75 2.25 17.3848 2.25 12C2.25 11.5858 2.58579 11.25 3 11.25ZM18 14C19.1046 14 20 14.8954 20 16C20 17.1046 19.1046 18 18 18C16.8954 18 16 17.1046 16 16C16 14.8954 16.8954 14 18 14ZM12 2.25C17.3848 2.25 21.75 6.61522 21.75 12C21.75 12.4142 21.4142 12.75 21 12.75C20.5858 12.75 20.25 12.4142 20.25 12C20.25 7.44365 16.5563 3.75 12 3.75C11.5858 3.75 11.25 3.41421 11.25 3C11.25 2.58579 11.5858 2.25 12 2.25ZM7 6C8.65685 6 10 6.89543 10 8C10 9.10457 8.65685 10 7 10C5.34315 10 4 9.10457 4 8C4 6.89543 5.34315 6 7 6ZM7 2C8.10457 2 9 2.89543 9 4C9 5.10457 8.10457 6 7 6C5.89543 6 5 5.10457 5 4C5 2.89543 5.89543 2 7 2Z" fill="#A591D0"/>
</svg>
